<svg width="23" height="23" viewBox="0 0 23 23" fill="none" xmlns="http://www.w3.org/2000/svg">
<path d="M20.4185 0.5625H3.23096C2.60936 0.5625 2.01321 0.80943 1.57368 1.24897C1.13414 1.68851 0.887207 2.28465 0.887207 2.90625L0.887207 20.0938C0.887207 20.7154 1.13414 21.3115 1.57368 21.751C2.01321 22.1906 2.60936 22.4375 3.23096 22.4375H9.93262V15.0005H6.85645V11.5H9.93262V8.83203C9.93262 5.79736 11.7393 4.12109 14.5063 4.12109C15.8315 4.12109 17.2173 4.35742 17.2173 4.35742V7.33594H15.6904C14.186 7.33594 13.7168 8.26953 13.7168 9.22705V11.5H17.0752L16.5381 15.0005H13.7168V22.4375H20.4185C21.0401 22.4375 21.6362 22.1906 22.0757 21.751C22.5153 21.3115 22.7622 20.7154 22.7622 20.0938V2.90625C22.7622 2.28465 22.5153 1.68851 22.0757 1.24897C21.6362 0.80943 21.0401 0.5625 20.4185 0.5625Z" fill="#363A2B"/>
</svg>
