<svg width="22" height="23" viewBox="0 0 22 23" fill="none" xmlns="http://www.w3.org/2000/svg">
<path d="M10.946 5.88965C7.84058 5.88965 5.33569 8.39453 5.33569 11.5C5.33569 14.6055 7.84058 17.1104 10.946 17.1104C14.0515 17.1104 16.5564 14.6055 16.5564 11.5C16.5564 8.39453 14.0515 5.88965 10.946 5.88965ZM10.946 15.1475C8.93921 15.1475 7.29858 13.5117 7.29858 11.5C7.29858 9.48828 8.93433 7.85254 10.946 7.85254C12.9578 7.85254 14.5935 9.48828 14.5935 11.5C14.5935 13.5117 12.9529 15.1475 10.946 15.1475ZM18.0945 5.66016C18.0945 6.3877 17.5085 6.96875 16.7859 6.96875C16.0584 6.96875 15.4773 6.38281 15.4773 5.66016C15.4773 4.9375 16.0632 4.35156 16.7859 4.35156C17.5085 4.35156 18.0945 4.9375 18.0945 5.66016ZM21.8103 6.98828C21.7273 5.23535 21.3269 3.68262 20.0427 2.40332C18.7634 1.12402 17.2107 0.723633 15.4578 0.635742C13.6511 0.533203 8.23608 0.533203 6.42944 0.635742C4.6814 0.71875 3.12866 1.11914 1.84448 2.39844C0.560303 3.67773 0.164795 5.23047 0.0769043 6.9834C-0.0256348 8.79004 -0.0256348 14.2051 0.0769043 16.0117C0.159912 17.7646 0.560303 19.3174 1.84448 20.5967C3.12866 21.876 4.67651 22.2764 6.42944 22.3643C8.23608 22.4668 13.6511 22.4668 15.4578 22.3643C17.2107 22.2812 18.7634 21.8809 20.0427 20.5967C21.322 19.3174 21.7224 17.7646 21.8103 16.0117C21.9128 14.2051 21.9128 8.79492 21.8103 6.98828ZM19.4763 17.9502C19.0955 18.9072 18.3582 19.6445 17.3962 20.0303C15.9558 20.6016 12.5378 20.4697 10.946 20.4697C9.35425 20.4697 5.9314 20.5967 4.49585 20.0303C3.53882 19.6494 2.80151 18.9121 2.41577 17.9502C1.84448 16.5098 1.97632 13.0918 1.97632 11.5C1.97632 9.9082 1.84937 6.48535 2.41577 5.0498C2.79663 4.09277 3.53394 3.35547 4.49585 2.96973C5.93628 2.39844 9.35425 2.53027 10.946 2.53027C12.5378 2.53027 15.9607 2.40332 17.3962 2.96973C18.3533 3.35059 19.0906 4.08789 19.4763 5.0498C20.0476 6.49023 19.9158 9.9082 19.9158 11.5C19.9158 13.0918 20.0476 16.5146 19.4763 17.9502Z" fill="#363A2B"/>
</svg>
